<svg id="visual" viewBox="0 0 900 600" width="900" height="600" xmlns="http://www.w3.org/2000/svg" xmlns:xlink="http://www.w3.org/1999/xlink" version="1.1"><rect x="0" y="0" width="900" height="600" fill="#001220"></rect><defs><linearGradient id="grad1_0" x1="33.3%" y1="0%" x2="100%" y2="100%"><stop offset="20%" stop-color="#001220" stop-opacity="1"></stop><stop offset="80%" stop-color="#001220" stop-opacity="1"></stop></linearGradient></defs><defs><linearGradient id="grad2_0" x1="0%" y1="0%" x2="66.7%" y2="100%"><stop offset="20%" stop-color="#001220" stop-opacity="1"></stop><stop offset="80%" stop-color="#001220" stop-opacity="1"></stop></linearGradient></defs><g transform="translate(900, 0)"><path d="M0 486.7C-63.7 481 -127.4 475.2 -186.3 449.7C-245.1 424.2 -299 378.9 -325.3 325.3C-351.5 271.7 -350 209.8 -372.3 154.2C-394.6 98.6 -440.7 49.3 -486.7 0L0 0Z" fill="#FBAE3C"></path></g><g transform="translate(0, 600)"><path d="M0 -486.7C46.5 -440 93 -393.2 156.1 -376.9C219.2 -360.6 298.9 -374.8 344.2 -344.2C389.5 -313.6 400.5 -238.2 418.5 -173.4C436.6 -108.5 461.7 -54.3 486.7 0L0 0Z" fill="#FBAE3C"></path></g></svg>