<svg id="visual" viewBox="0 0 900 600" width="900" height="600" xmlns="http://www.w3.org/2000/svg" xmlns:xlink="http://www.w3.org/1999/xlink" version="1.1"><rect x="0" y="0" width="900" height="600" fill="#001220"></rect><defs><linearGradient id="grad1_0" x1="33.3%" y1="0%" x2="100%" y2="100%"><stop offset="20%" stop-color="#fbae3c" stop-opacity="1"></stop><stop offset="80%" stop-color="#fbae3c" stop-opacity="1"></stop></linearGradient></defs><defs><linearGradient id="grad1_1" x1="33.3%" y1="0%" x2="100%" y2="100%"><stop offset="20%" stop-color="#fbae3c" stop-opacity="1"></stop><stop offset="80%" stop-color="#f48350" stop-opacity="1"></stop></linearGradient></defs><defs><linearGradient id="grad1_2" x1="33.3%" y1="0%" x2="100%" y2="100%"><stop offset="20%" stop-color="#d96162" stop-opacity="1"></stop><stop offset="80%" stop-color="#f48350" stop-opacity="1"></stop></linearGradient></defs><defs><linearGradient id="grad1_3" x1="33.3%" y1="0%" x2="100%" y2="100%"><stop offset="20%" stop-color="#d96162" stop-opacity="1"></stop><stop offset="80%" stop-color="#af4b6d" stop-opacity="1"></stop></linearGradient></defs><defs><linearGradient id="grad1_4" x1="33.3%" y1="0%" x2="100%" y2="100%"><stop offset="20%" stop-color="#7c3e6b" stop-opacity="1"></stop><stop offset="80%" stop-color="#af4b6d" stop-opacity="1"></stop></linearGradient></defs><defs><linearGradient id="grad1_5" x1="33.3%" y1="0%" x2="100%" y2="100%"><stop offset="20%" stop-color="#7c3e6b" stop-opacity="1"></stop><stop offset="80%" stop-color="#49335c" stop-opacity="1"></stop></linearGradient></defs><defs><linearGradient id="grad1_6" x1="33.3%" y1="0%" x2="100%" y2="100%"><stop offset="20%" stop-color="#1d2540" stop-opacity="1"></stop><stop offset="80%" stop-color="#49335c" stop-opacity="1"></stop></linearGradient></defs><defs><linearGradient id="grad1_7" x1="33.3%" y1="0%" x2="100%" y2="100%"><stop offset="20%" stop-color="#1d2540" stop-opacity="1"></stop><stop offset="80%" stop-color="#001220" stop-opacity="1"></stop></linearGradient></defs><defs><linearGradient id="grad2_0" x1="0%" y1="0%" x2="66.7%" y2="100%"><stop offset="20%" stop-color="#fbae3c" stop-opacity="1"></stop><stop offset="80%" stop-color="#fbae3c" stop-opacity="1"></stop></linearGradient></defs><defs><linearGradient id="grad2_1" x1="0%" y1="0%" x2="66.7%" y2="100%"><stop offset="20%" stop-color="#f48350" stop-opacity="1"></stop><stop offset="80%" stop-color="#fbae3c" stop-opacity="1"></stop></linearGradient></defs><defs><linearGradient id="grad2_2" x1="0%" y1="0%" x2="66.7%" y2="100%"><stop offset="20%" stop-color="#f48350" stop-opacity="1"></stop><stop offset="80%" stop-color="#d96162" stop-opacity="1"></stop></linearGradient></defs><defs><linearGradient id="grad2_3" x1="0%" y1="0%" x2="66.7%" y2="100%"><stop offset="20%" stop-color="#af4b6d" stop-opacity="1"></stop><stop offset="80%" stop-color="#d96162" stop-opacity="1"></stop></linearGradient></defs><defs><linearGradient id="grad2_4" x1="0%" y1="0%" x2="66.7%" y2="100%"><stop offset="20%" stop-color="#af4b6d" stop-opacity="1"></stop><stop offset="80%" stop-color="#7c3e6b" stop-opacity="1"></stop></linearGradient></defs><defs><linearGradient id="grad2_5" x1="0%" y1="0%" x2="66.7%" y2="100%"><stop offset="20%" stop-color="#49335c" stop-opacity="1"></stop><stop offset="80%" stop-color="#7c3e6b" stop-opacity="1"></stop></linearGradient></defs><defs><linearGradient id="grad2_6" x1="0%" y1="0%" x2="66.7%" y2="100%"><stop offset="20%" stop-color="#49335c" stop-opacity="1"></stop><stop offset="80%" stop-color="#1d2540" stop-opacity="1"></stop></linearGradient></defs><defs><linearGradient id="grad2_7" x1="0%" y1="0%" x2="66.7%" y2="100%"><stop offset="20%" stop-color="#001220" stop-opacity="1"></stop><stop offset="80%" stop-color="#1d2540" stop-opacity="1"></stop></linearGradient></defs><g transform="translate(900, 0)"><path d="M0 486.7C-60.9 473 -121.8 459.3 -181.4 437.9C-241 416.6 -299.2 387.6 -344.2 344.2C-389.2 300.8 -421 243.1 -442.5 183.3C-464.1 123.5 -475.4 61.8 -486.7 0L0 0Z" fill="#0c1c30"></path><path d="M0 425.9C-53.3 413.9 -106.6 401.9 -158.7 383.2C-210.8 364.5 -261.8 339.1 -301.2 301.2C-340.5 263.2 -368.4 212.7 -387.2 160.4C-406.1 108.1 -416 54.1 -425.9 0L0 0Z" fill="#312c4f"></path><path d="M0 365.1C-45.7 354.8 -91.4 344.5 -136 328.4C-180.7 312.4 -224.4 290.7 -258.1 258.1C-291.9 225.6 -315.7 182.3 -331.9 137.5C-348.1 92.7 -356.6 46.3 -365.1 0L0 0Z" fill="#623965"></path><path d="M0 304.2C-38.1 295.6 -76.1 287.1 -113.4 273.7C-150.6 260.3 -187 242.2 -215.1 215.1C-243.2 188 -263.1 151.9 -276.6 114.6C-290.1 77.2 -297.1 38.6 -304.2 0L0 0Z" fill="#96446e"></path><path d="M0 243.4C-30.5 236.5 -60.9 229.6 -90.7 219C-120.5 208.3 -149.6 193.8 -172.1 172.1C-194.6 150.4 -210.5 121.5 -221.3 91.7C-232 61.8 -237.7 30.9 -243.4 0L0 0Z" fill="#c55469"></path><path d="M0 182.5C-22.8 177.4 -45.7 172.2 -68 164.2C-90.4 156.2 -112.2 145.3 -129.1 129.1C-145.9 112.8 -157.9 91.1 -166 68.7C-174 46.3 -178.3 23.2 -182.5 0L0 0Z" fill="#e9705a"></path><path d="M0 121.7C-15.2 118.3 -30.5 114.8 -45.3 109.5C-60.2 104.1 -74.8 96.9 -86 86C-97.3 75.2 -105.2 60.8 -110.6 45.8C-116 30.9 -118.9 15.4 -121.7 0L0 0Z" fill="#fa9845"></path><path d="M0 60.8C-7.6 59.1 -15.2 57.4 -22.7 54.7C-30.1 52.1 -37.4 48.4 -43 43C-48.6 37.6 -52.6 30.4 -55.3 22.9C-58 15.4 -59.4 7.7 -60.8 0L0 0Z" fill="#fbae3c"></path></g><g transform="translate(0, 600)"><path d="M0 -486.7C60.7 -467.4 121.4 -448.1 174.5 -421.3C227.6 -394.5 273.2 -360.2 321.7 -321.7C370.3 -283.3 421.7 -240.6 449.7 -186.3C477.7 -131.9 482.2 -66 486.7 0L0 0Z" fill="#0c1c30"></path><path d="M0 -425.9C53.1 -409 106.2 -392.1 152.7 -368.6C199.2 -345.2 239.1 -315.2 281.5 -281.5C324 -247.9 369 -210.5 393.5 -163C418 -115.5 421.9 -57.7 425.9 0L0 0Z" fill="#312c4f"></path><path d="M0 -365.1C45.5 -350.6 91 -336.1 130.9 -316C170.7 -295.9 204.9 -270.2 241.3 -241.3C277.7 -212.4 316.3 -180.4 337.3 -139.7C358.3 -99 361.7 -49.5 365.1 0L0 0Z" fill="#623965"></path><path d="M0 -304.2C37.9 -292.1 75.9 -280.1 109.1 -263.3C142.3 -246.6 170.8 -225.1 201.1 -201.1C231.4 -177 263.6 -150.4 281.1 -116.4C298.6 -82.5 301.4 -41.2 304.2 0L0 0Z" fill="#96446e"></path><path d="M0 -243.4C30.3 -233.7 60.7 -224 87.3 -210.6C113.8 -197.2 136.6 -180.1 160.9 -160.9C185.1 -141.6 210.9 -120.3 224.8 -93.1C238.8 -66 241.1 -33 243.4 0L0 0Z" fill="#c55469"></path><path d="M0 -182.5C22.8 -175.3 45.5 -168 65.4 -158C85.4 -147.9 102.5 -135.1 120.7 -120.7C138.8 -106.2 158.1 -90.2 168.6 -69.9C179.1 -49.5 180.8 -24.7 182.5 0L0 0Z" fill="#e9705a"></path><path d="M0 -121.7C15.2 -116.9 30.3 -112 43.6 -105.3C56.9 -98.6 68.3 -90.1 80.4 -80.4C92.6 -70.8 105.4 -60.1 112.4 -46.6C119.4 -33 120.6 -16.5 121.7 0L0 0Z" fill="#fa9845"></path><path d="M0 -60.8C7.6 -58.4 15.2 -56 21.8 -52.7C28.5 -49.3 34.2 -45 40.2 -40.2C46.3 -35.4 52.7 -30.1 56.2 -23.3C59.7 -16.5 60.3 -8.2 60.8 0L0 0Z" fill="#fbae3c"></path></g></svg>