<svg id="visual" viewBox="0 0 1920 1080" width="1920" height="1080" xmlns="http://www.w3.org/2000/svg" xmlns:xlink="http://www.w3.org/1999/xlink" version="1.1"><rect x="0" y="0" width="1920" height="1080" fill="#001220"></rect><g fill="#A7233A"><circle r="135" cx="1364" cy="753"></circle><circle r="84" cx="276" cy="869"></circle><circle r="121" cx="1831" cy="917"></circle><circle r="128" cx="1577" cy="119"></circle><circle r="116" cx="887" cy="1026"></circle><circle r="102" cx="125" cy="389"></circle><circle r="90" cx="167" cy="17"></circle><circle r="84" cx="755" cy="70"></circle><circle r="121" cx="1917" cy="74"></circle><circle r="123" cx="1119" cy="486"></circle><circle r="83" cx="1192" cy="207"></circle><circle r="88" cx="843" cy="378"></circle><circle r="118" cx="459" cy="537"></circle><circle r="118" cx="1674" cy="414"></circle><circle r="89" cx="472" cy="189"></circle><circle r="84" cx="963" cy="707"></circle><circle r="85" cx="1191" cy="994"></circle><circle r="130" cx="648" cy="770"></circle><circle r="110" cx="77" cy="1078"></circle><circle r="124" cx="1919" cy="652"></circle><circle r="88" cx="1644" cy="710"></circle><circle r="121" cx="490" cy="1059"></circle><circle r="106" cx="1534" cy="1019"></circle><circle r="97" cx="33" cy="749"></circle><circle r="98" cx="1388" cy="457"></circle></g></svg>